<svg width="56" height="56" viewBox="0 0 56 56" fill="none" xmlns="http://www.w3.org/2000/svg">
<path d="M28 0C12.544 0 0 12.544 0 28C0 43.456 12.544 56 28 56C43.456 56 56 43.456 56 28C56 12.544 43.456 0 28 0ZM48.888 19.936L41.104 23.156C40.4027 21.2691 39.3013 19.5564 37.8755 18.1354C36.4497 16.7145 34.7332 15.6189 32.844 14.924L36.064 7.14C41.944 9.38 46.62 14.056 48.888 19.936V19.936ZM28 36.4C23.352 36.4 19.6 32.648 19.6 28C19.6 23.352 23.352 19.6 28 19.6C32.648 19.6 36.4 23.352 36.4 28C36.4 32.648 32.648 36.4 28 36.4ZM19.964 7.112L23.24 14.896C21.3285 15.5926 19.5918 16.6975 18.1507 18.1336C16.7097 19.5698 15.599 21.3028 14.896 23.212L7.112 19.964C8.23476 17.0412 9.95897 14.3869 12.1729 12.1729C14.3869 9.95897 17.0412 8.23476 19.964 7.112V7.112ZM7.112 36.036L14.896 32.816C15.5941 34.7202 16.7002 36.4487 18.1367 37.8804C19.5733 39.312 21.3055 40.4123 23.212 41.104L19.936 48.888C17.0195 47.7601 14.3715 46.0338 12.1628 43.8202C9.95406 41.6067 8.23351 38.955 7.112 36.036V36.036ZM36.064 48.888L32.844 41.104C34.7421 40.4008 36.4642 39.2926 37.8906 37.8564C39.3171 36.4203 40.4136 34.6908 41.104 32.788L48.888 36.064C47.7615 38.9769 46.0389 41.6222 43.8306 43.8306C41.6222 46.0389 38.9769 47.7615 36.064 48.888V48.888Z" fill="black"/>
</svg>
