<svg width="56" height="56" viewBox="0 0 56 56" fill="none" xmlns="http://www.w3.org/2000/svg">
<path d="M28 0C12.536 0 0 12.536 0 28C0 43.464 12.536 56 28 56C43.464 56 56 43.464 56 28C56 12.536 43.464 0 28 0ZM27.0498 10.3496H28.9502V15.9516H27.0498V10.3496ZM19.2773 12.0312L22.4903 16.6181L20.9317 17.7119L17.7188 13.125L19.2773 12.0312ZM36.7227 12.0312L38.2812 13.125L35.0683 17.7119L33.5097 16.6181L36.7227 12.0312ZM28 17.4829C32.6552 17.4829 36.4287 20.3085 36.4287 23.7959L31.6401 38.2984H24.3599L19.5713 23.7959C19.5713 20.3085 23.3451 17.4829 28 17.4829ZM12.8618 19.1646L18.1255 21.082L17.4727 22.8697L12.2124 20.9522L12.8618 19.1646ZM43.1382 19.1646L43.7876 20.9522L38.5239 22.8697L37.8745 21.082L43.1382 19.1646ZM17.8725 27.3438L18.3647 29.1826L12.9541 30.6319L12.4619 28.793L17.8725 27.3438ZM38.1275 27.3438L43.5381 28.793L43.0459 30.6319L37.6353 29.1826L38.1275 27.3438ZM24.2539 39.3579H31.7461V41.8769H24.2539V39.3579ZM24.2539 43.1313H31.7461V45.6504H24.2539V43.1313Z" fill="black"/>
</svg>
