<svg width="147" height="62" viewBox="0 0 147 62" fill="none" xmlns="http://www.w3.org/2000/svg">
<rect x="7" width="140" height="55" fill="#EAFE6E"/>
<rect y="7" width="140" height="55" fill="#A0E9FB" fill-opacity="0.44"/>
<path d="M33.3047 44.36C30.9847 44.36 29.2547 43.75 28.1147 42.53C26.9947 41.29 26.3947 39.33 26.3147 36.65L30.9047 35.96C30.9247 37.5 31.1047 38.61 31.4447 39.29C31.8047 39.95 32.3347 40.28 33.0347 40.28C33.9347 40.28 34.3847 39.69 34.3847 38.51C34.3847 37.57 34.1647 36.76 33.7247 36.08C33.3047 35.4 32.6347 34.67 31.7147 33.89L29.6147 32.06C28.5747 31.18 27.7647 30.25 27.1847 29.27C26.6247 28.27 26.3447 27.09 26.3447 25.73C26.3447 23.69 26.9447 22.12 28.1447 21.02C29.3647 19.92 31.0347 19.37 33.1547 19.37C35.4547 19.37 37.0147 20.04 37.8347 21.38C38.6747 22.72 39.1247 24.35 39.1847 26.27L34.5647 26.84C34.5247 25.58 34.4047 24.68 34.2047 24.14C34.0247 23.58 33.6147 23.3 32.9747 23.3C32.5147 23.3 32.1547 23.5 31.8947 23.9C31.6547 24.28 31.5347 24.71 31.5347 25.19C31.5347 26.01 31.7147 26.7 32.0747 27.26C32.4547 27.82 33.0547 28.46 33.8747 29.18L35.8847 30.95C37.0847 31.97 38.0147 33.05 38.6747 34.19C39.3347 35.33 39.6647 36.68 39.6647 38.24C39.6647 39.38 39.3947 40.42 38.8547 41.36C38.3347 42.28 37.5947 43.01 36.6347 43.55C35.6747 44.09 34.5647 44.36 33.3047 44.36ZM45.3548 23.69H41.6948V19.7H54.3848V23.69H50.7548V44H45.3548V23.69ZM64.4442 44.36C62.6242 44.36 61.1842 44.07 60.1242 43.49C59.0642 42.89 58.3142 42.02 57.8742 40.88C57.4542 39.72 57.2442 38.25 57.2442 36.47V19.7H62.5542V37.28C62.5542 38.26 62.6742 39.04 62.9142 39.62C63.1742 40.2 63.6842 40.49 64.4442 40.49C65.2042 40.49 65.7042 40.2 65.9442 39.62C66.1842 39.04 66.3042 38.26 66.3042 37.28V19.7H71.6442V36.47C71.6442 38.25 71.4242 39.72 70.9842 40.88C70.5442 42.02 69.7942 42.89 68.7342 43.49C67.6942 44.07 66.2642 44.36 64.4442 44.36ZM75.9609 19.7H82.1109C84.2109 19.7 85.8509 19.96 87.0309 20.48C88.2109 21 89.0409 21.82 89.5209 22.94C90.0209 24.04 90.2709 25.52 90.2709 27.38V36.2C90.2709 38.08 90.0209 39.58 89.5209 40.7C89.0409 41.82 88.2109 42.65 87.0309 43.19C85.8709 43.73 84.2509 44 82.1709 44H75.9609V19.7ZM82.1709 40.28C82.9509 40.28 83.5209 40.17 83.8809 39.95C84.2609 39.71 84.5009 39.38 84.6009 38.96C84.7009 38.52 84.7509 37.88 84.7509 37.04V26.45C84.7509 25.67 84.6909 25.08 84.5709 24.68C84.4709 24.26 84.2309 23.95 83.8509 23.75C83.4909 23.55 82.9209 23.45 82.1409 23.45H81.3309V40.28H82.1709ZM94.4391 19.7H105.359V23.36H99.8091V29.39H104.039V33.11H99.8091V40.37H105.419V44H94.4391V19.7ZM108.757 19.7H115.447C118.107 19.7 120.117 20.17 121.477 21.11C122.837 22.05 123.517 23.72 123.517 26.12C123.517 27.74 123.307 29.03 122.887 29.99C122.467 30.95 121.687 31.7 120.547 32.24L123.877 44H118.327L115.657 33.11H114.127V44H108.757V19.7ZM115.627 30.02C116.707 30.02 117.457 29.74 117.877 29.18C118.317 28.6 118.537 27.74 118.537 26.6C118.537 25.5 118.337 24.68 117.937 24.14C117.537 23.58 116.847 23.3 115.867 23.3H114.127V30.02H115.627Z" fill="black" fill-opacity="0.17"/>
<path d="M31.3047 44.36C28.9847 44.36 27.2547 43.75 26.1147 42.53C24.9947 41.29 24.3947 39.33 24.3147 36.65L28.9047 35.96C28.9247 37.5 29.1047 38.61 29.4447 39.29C29.8047 39.95 30.3347 40.28 31.0347 40.28C31.9347 40.28 32.3847 39.69 32.3847 38.51C32.3847 37.57 32.1647 36.76 31.7247 36.08C31.3047 35.4 30.6347 34.67 29.7147 33.89L27.6147 32.06C26.5747 31.18 25.7647 30.25 25.1847 29.27C24.6247 28.27 24.3447 27.09 24.3447 25.73C24.3447 23.69 24.9447 22.12 26.1447 21.02C27.3647 19.92 29.0347 19.37 31.1547 19.37C33.4547 19.37 35.0147 20.04 35.8347 21.38C36.6747 22.72 37.1247 24.35 37.1847 26.27L32.5647 26.84C32.5247 25.58 32.4047 24.68 32.2047 24.14C32.0247 23.58 31.6147 23.3 30.9747 23.3C30.5147 23.3 30.1547 23.5 29.8947 23.9C29.6547 24.28 29.5347 24.71 29.5347 25.19C29.5347 26.01 29.7147 26.7 30.0747 27.26C30.4547 27.82 31.0547 28.46 31.8747 29.18L33.8847 30.95C35.0847 31.97 36.0147 33.05 36.6747 34.19C37.3347 35.33 37.6647 36.68 37.6647 38.24C37.6647 39.38 37.3947 40.42 36.8547 41.36C36.3347 42.28 35.5947 43.01 34.6347 43.55C33.6747 44.09 32.5647 44.36 31.3047 44.36ZM43.3548 23.69H39.6948V19.7H52.3848V23.69H48.7548V44H43.3548V23.69ZM62.4442 44.36C60.6242 44.36 59.1842 44.07 58.1242 43.49C57.0642 42.89 56.3142 42.02 55.8742 40.88C55.4542 39.72 55.2442 38.25 55.2442 36.47V19.7H60.5542V37.28C60.5542 38.26 60.6742 39.04 60.9142 39.62C61.1742 40.2 61.6842 40.49 62.4442 40.49C63.2042 40.49 63.7042 40.2 63.9442 39.62C64.1842 39.04 64.3042 38.26 64.3042 37.28V19.7H69.6442V36.47C69.6442 38.25 69.4242 39.72 68.9842 40.88C68.5442 42.02 67.7942 42.89 66.7342 43.49C65.6942 44.07 64.2642 44.36 62.4442 44.36ZM73.9609 19.7H80.1109C82.2109 19.7 83.8509 19.96 85.0309 20.48C86.2109 21 87.0409 21.82 87.5209 22.94C88.0209 24.04 88.2709 25.52 88.2709 27.38V36.2C88.2709 38.08 88.0209 39.58 87.5209 40.7C87.0409 41.82 86.2109 42.65 85.0309 43.19C83.8709 43.73 82.2509 44 80.1709 44H73.9609V19.7ZM80.1709 40.28C80.9509 40.28 81.5209 40.17 81.8809 39.95C82.2609 39.71 82.5009 39.38 82.6009 38.96C82.7009 38.52 82.7509 37.88 82.7509 37.04V26.45C82.7509 25.67 82.6909 25.08 82.5709 24.68C82.4709 24.26 82.2309 23.95 81.8509 23.75C81.4909 23.55 80.9209 23.45 80.1409 23.45H79.3309V40.28H80.1709ZM92.4391 19.7H103.359V23.36H97.8091V29.39H102.039V33.11H97.8091V40.37H103.419V44H92.4391V19.7ZM106.757 19.7H113.447C116.107 19.7 118.117 20.17 119.477 21.11C120.837 22.05 121.517 23.72 121.517 26.12C121.517 27.74 121.307 29.03 120.887 29.99C120.467 30.95 119.687 31.7 118.547 32.24L121.877 44H116.327L113.657 33.11H112.127V44H106.757V19.7ZM113.627 30.02C114.707 30.02 115.457 29.74 115.877 29.18C116.317 28.6 116.537 27.74 116.537 26.6C116.537 25.5 116.337 24.68 115.937 24.14C115.537 23.58 114.847 23.3 113.867 23.3H112.127V30.02H113.627Z" fill="black"/>
</svg>
